<?xml version="1.0" encoding="UTF-8" standalone="no"?>
<!DOCTYPE svg PUBLIC "-//W3C//DTD SVG 1.1//EN" "http://www.w3.org/Graphics/SVG/1.1/DTD/svg11.dtd">
<svg xmlns="http://www.w3.org/2000/svg" version="1.1" width="128" height="128" viewBox="0.00 0.00 128.00 128.00">
<path fill="#ce456b" d="
  M 48.32 61.04
  Q 49.88 57.61 53.89 59.42
  A 1.49 1.47 -82.3 0 1 54.74 60.55
  C 55.31 64.14 56.45 76.72 49.07 73.45
  C 45.44 71.84 47.05 63.83 48.32 61.04
  Z"
/>
<path fill="#ce456b" d="
  M 73.83 72.89
  A 1.90 1.90 0.0 0 1 71.93 70.99
  L 71.96 63.31
  A 4.34 3.90 -89.8 0 1 75.87 58.98
  L 76.15 58.98
  A 4.34 3.90 -89.8 0 1 80.04 63.33
  L 80.01 71.01
  A 1.90 1.90 0.0 0 1 78.11 72.91
  L 73.83 72.89
  Z"
/>
</svg>
