<?xml version="1.0" encoding="UTF-8" standalone="no"?>
<!DOCTYPE svg PUBLIC "-//W3C//DTD SVG 1.1//EN" "http://www.w3.org/Graphics/SVG/1.1/DTD/svg11.dtd">
<svg xmlns="http://www.w3.org/2000/svg" version="1.1" viewBox="0.00 0.00 128.00 128.00">
<path fill="#ce456b" d="
  M 83.52 89.11
  A 0.73 0.73 0.0 0 0 82.87 90.10
  C 83.44 91.56 84.38 92.82 85.91 93.35
  C 89.46 94.57 92.55 96.38 92.08 100.83
  C 91.20 109.03 75.10 105.99 70.96 104.14
  Q 69.11 103.32 68.98 101.24
  Q 68.70 96.67 69.33 92.27
  Q 69.83 88.87 66.43 88.35
  Q 65.18 88.16 64.79 88.10
  Q 61.58 87.61 61.03 90.81
  Q 60.52 93.79 60.18 96.78
  C 59.78 100.21 57.61 103.27 54.27 104.00
  Q 48.42 105.27 40.49 105.12
  Q 37.71 105.07 36.17 103.81
  C 33.38 101.54 32.83 96.64 35.43 93.92
  C 38.16 91.07 40.91 90.97 44.53 90.92
  A 1.50 1.50 0.0 0 0 45.91 89.93
  L 46.84 87.30
  Q 47.31 85.99 45.91 85.99
  Q 39.90 86.03 33.59 85.99
  C 32.63 85.99 31.34 85.76 30.56 85.13
  C 25.11 80.75 24.42 73.57 25.26 66.92
  C 25.90 61.88 25.60 56.75 26.35 51.77
  C 26.80 48.78 28.33 44.08 32.16 44.04
  Q 37.74 43.99 43.27 42.22
  Q 46.81 41.09 46.92 37.27
  Q 47.05 32.53 47.03 27.66
  C 47.01 23.69 54.63 22.09 57.24 22.22
  C 63.65 22.54 70.47 22.85 76.71 24.41
  Q 77.25 24.54 77.51 25.03
  C 79.50 28.79 79.15 34.94 78.95 39.25
  A 1.95 1.94 -75.2 0 0 80.01 41.08
  Q 84.26 43.28 89.71 42.94
  C 93.48 42.71 97.50 44.84 97.86 48.94
  Q 99.39 66.93 98.57 79.95
  C 98.29 84.37 97.07 89.00 91.54 88.96
  Q 87.45 88.93 83.52 89.11
  Z
  M 73.71 85.31
  Q 75.75 90.32 74.20 95.98
  C 72.53 102.09 83.09 101.36 86.05 100.56
  A 0.43 0.42 65.8 0 0 86.29 99.91
  Q 86.02 99.52 85.56 99.40
  Q 76.02 96.95 78.26 86.81
  C 78.62 85.21 80.11 84.08 81.74 84.06
  Q 85.49 84.03 89.26 83.96
  Q 91.88 83.91 92.55 81.90
  Q 94.39 76.38 93.94 69.32
  Q 93.39 60.73 92.82 51.15
  Q 92.65 48.34 89.80 48.19
  C 86.10 47.99 73.90 48.19 73.96 41.84
  C 74.00 38.34 74.54 33.66 73.36 30.28
  A 1.94 1.94 0.0 0 0 71.91 29.01
  Q 66.52 27.91 59.50 27.76
  Q 55.97 27.69 52.81 28.67
  A 1.15 1.14 -9.7 0 0 52.00 29.80
  Q 52.12 34.85 51.95 39.26
  Q 51.72 45.25 46.01 47.21
  Q 40.73 49.03 34.67 49.05
  Q 33.38 49.06 32.78 50.20
  Q 30.83 53.94 31.22 57.36
  C 31.68 61.41 30.73 65.55 30.32 69.49
  C 30.02 72.45 30.91 78.01 33.54 80.11
  Q 34.88 81.17 36.96 81.09
  Q 43.53 80.81 48.70 81.22
  Q 51.28 81.43 51.76 83.81
  C 52.35 86.71 52.29 95.58 47.39 95.92
  C 44.67 96.10 41.52 95.98 39.36 97.91
  A 0.98 0.98 0.0 0 0 39.71 99.57
  C 43.62 100.80 48.02 99.61 51.93 98.82
  Q 54.17 98.37 54.66 96.40
  Q 55.87 91.49 55.16 86.52
  Q 54.90 84.65 56.71 84.14
  C 61.64 82.75 68.14 82.20 72.92 84.47
  A 1.61 1.58 2.2 0 1 73.71 85.31
  Z"
/>
<path fill="#ce456b" d="
  M 119.11 40.20
  C 117.75 40.61 117.11 42.01 117.07 43.33
  Q 116.75 53.42 116.38 62.78
  C 116.28 65.25 116.70 67.74 116.56 70.22
  Q 115.83 83.18 116.07 96.57
  Q 116.15 100.69 115.06 102.46
  Q 112.84 106.11 107.51 104.71
  C 103.99 103.78 102.95 100.29 103.00 97.16
  Q 103.48 66.59 102.93 38.52
  C 102.87 35.13 103.21 31.57 104.01 28.37
  C 104.81 25.13 110.60 23.52 113.82 23.10
  C 122.09 22.03 126.78 28.95 124.61 36.73
  Q 124.45 37.30 123.98 37.67
  Q 121.79 39.38 119.11 40.20
  Z
  M 110.61 99.23
  Q 111.29 90.27 111.10 80.87
  Q 110.80 66.10 112.23 40.57
  C 112.46 36.44 114.95 35.09 118.57 34.38
  A 1.54 1.53 -13.1 0 0 119.76 32.48
  Q 119.03 29.74 116.75 28.77
  C 115.25 28.14 114.14 28.82 112.68 28.98
  C 108.85 29.39 108.56 33.44 108.19 36.34
  Q 107.99 37.93 107.97 39.52
  C 107.79 58.98 107.50 78.54 109.15 97.94
  A 1.89 1.86 -71.1 0 0 109.73 99.15
  L 110.03 99.45
  A 0.34 0.34 0.0 0 0 110.61 99.23
  Z"
/>
<path fill="#ce456b" d="
  M 48.32 61.04
  Q 49.88 57.61 53.89 59.42
  A 1.49 1.47 -82.3 0 1 54.74 60.55
  C 55.31 64.14 56.45 76.72 49.07 73.45
  C 45.44 71.84 47.05 63.83 48.32 61.04
  Z"
/>
<path fill="#ce456b" d="
  M 73.83 72.89
  A 1.90 1.90 0.0 0 1 71.93 70.99
  L 71.96 63.31
  A 4.34 3.90 -89.8 0 1 75.87 58.98
  L 76.15 58.98
  A 4.34 3.90 -89.8 0 1 80.04 63.33
  L 80.01 71.01
  A 1.90 1.90 0.0 0 1 78.11 72.91
  L 73.83 72.89
  Z"
/>
</svg>
