<?xml version="1.0" encoding="UTF-8" standalone="no"?>
<!DOCTYPE svg PUBLIC "-//W3C//DTD SVG 1.1//EN" "http://www.w3.org/Graphics/SVG/1.1/DTD/svg11.dtd">
<svg xmlns="http://www.w3.org/2000/svg" version="1.1" viewBox="0.00 0.00 128.00 128.00">
<path fill="#ce456b" d="
  M 44.36 87.10
  Q 45.24 85.97 43.81 86.04
  Q 38.70 86.28 32.32 85.09
  Q 29.60 84.59 27.59 82.31
  C 24.80 79.14 24.68 76.37 25.22 72.48
  Q 26.93 60.09 27.06 47.42
  C 27.10 43.41 30.21 41.78 33.83 41.99
  C 37.33 42.20 41.53 42.26 44.88 41.15
  Q 45.86 40.82 46.05 39.80
  Q 47.25 33.17 47.02 25.67
  A 2.51 2.50 71.6 0 1 48.09 23.52
  Q 50.73 21.66 54.42 20.90
  Q 65.04 18.70 76.30 22.22
  Q 78.39 22.87 78.75 24.93
  C 79.47 28.99 80.63 34.41 79.42 38.52
  A 1.04 1.04 0.0 0 0 80.37 39.86
  Q 86.86 40.16 93.61 41.42
  Q 97.34 42.12 98.08 45.84
  Q 99.09 50.89 98.94 56.24
  Q 98.55 69.65 97.31 81.44
  Q 96.99 84.53 94.58 86.10
  C 92.98 87.14 90.84 86.97 88.97 87.13
  Q 87.54 87.25 88.55 88.26
  L 89.29 88.99
  Q 90.14 89.85 91.35 89.94
  L 95.64 90.27
  A 2.08 2.08 0.0 0 1 97.53 91.98
  C 97.98 94.48 99.03 101.30 96.46 103.06
  C 91.52 106.45 83.02 109.80 78.07 104.50
  Q 71.94 97.93 69.08 91.10
  Q 68.79 90.42 68.08 90.26
  Q 64.47 89.43 61.00 90.04
  A 2.08 2.07 10.7 0 0 59.58 91.00
  C 58.33 93.03 57.13 95.01 55.40 96.72
  C 52.40 99.68 49.88 102.10 46.06 104.36
  C 40.47 107.68 34.50 108.61 31.28 101.24
  C 29.33 96.78 25.83 88.04 34.45 87.89
  Q 39.45 87.81 42.17 89.53
  A 0.28 0.27 35.0 0 0 42.53 89.47
  L 44.36 87.10
  Z
  M 49.92 45.63
  C 44.83 47.21 39.28 47.09 33.92 47.10
  Q 32.58 47.11 32.29 48.42
  Q 32.10 49.27 32.10 50.19
  Q 32.08 61.24 30.49 73.70
  C 30.16 76.29 31.16 78.93 33.81 79.68
  Q 38.72 81.08 45.07 81.00
  C 49.78 80.94 51.00 84.62 49.80 88.69
  C 49.30 90.38 47.93 91.57 47.02 93.06
  C 44.71 96.84 39.30 94.95 36.45 93.15
  A 0.99 0.99 0.0 0 0 34.95 94.13
  C 35.34 96.81 37.29 102.77 41.13 100.55
  Q 49.82 95.51 55.62 86.79
  Q 56.73 85.13 58.75 85.03
  Q 63.78 84.80 69.93 84.97
  C 71.98 85.03 73.31 86.53 74.04 88.28
  Q 77.43 96.30 83.96 101.34
  Q 85.35 102.41 86.99 101.62
  Q 89.58 100.37 92.12 98.90
  Q 93.08 98.34 93.08 97.26
  A 1.34 1.33 -7.8 0 0 91.37 95.97
  C 88.91 96.67 87.05 95.84 85.55 93.85
  Q 83.27 90.80 80.73 88.00
  A 3.44 3.08 39.9 0 1 80.18 84.20
  Q 80.60 83.46 81.75 83.12
  Q 86.01 81.85 89.70 81.96
  A 2.38 2.38 0.0 0 0 92.13 79.89
  Q 93.76 67.29 93.94 55.78
  Q 94.01 51.63 92.66 47.17
  A 1.17 1.16 -2.5 0 0 91.78 46.37
  Q 84.40 44.91 77.44 44.94
  A 2.59 2.57 74.2 0 1 75.21 43.68
  C 74.21 42.01 73.79 39.92 74.06 37.96
  Q 74.75 33.08 73.83 27.93
  A 1.27 1.25 -88.7 0 0 72.89 26.93
  C 66.20 25.31 61.01 24.50 53.99 26.86
  Q 51.83 27.58 51.95 29.92
  Q 52.35 37.84 50.56 44.95
  Q 50.43 45.47 49.92 45.63
  Z"
/>
<path fill="#ce456b" d="
  M 117.91 40.74
  Q 115.85 45.29 116.15 48.51
  Q 117.77 65.84 116.37 83.89
  Q 115.78 91.53 116.76 99.35
  A 2.89 2.88 66.9 0 1 115.72 101.95
  Q 112.56 104.53 107.01 104.05
  C 105.68 103.94 104.52 103.66 103.94 102.30
  Q 102.99 100.07 102.99 98.72
  Q 103.07 85.90 102.47 72.33
  Q 102.14 64.85 102.19 57.91
  C 102.25 48.76 101.91 41.30 101.86 32.75
  C 101.83 28.50 104.64 25.63 108.59 25.17
  Q 114.66 24.46 121.12 25.05
  C 126.28 25.53 126.46 32.53 125.94 36.53
  C 125.41 40.64 121.65 39.81 118.79 40.10
  A 1.11 1.10 -80.9 0 0 117.91 40.74
  Z
  M 111.62 76.89
  Q 112.25 64.31 111.12 48.58
  Q 110.73 43.16 112.73 38.11
  Q 114.17 34.45 119.18 35.04
  Q 121.69 35.33 120.95 32.92
  L 120.77 32.33
  Q 120.07 30.04 117.68 29.96
  Q 113.29 29.82 109.93 30.40
  Q 107.10 30.88 107.02 33.90
  Q 106.48 54.98 107.66 74.40
  C 108.13 82.03 107.80 89.45 108.15 96.97
  Q 108.22 98.41 109.46 99.11
  Q 110.07 99.44 110.59 97.72
  Q 110.86 96.83 110.89 95.90
  Q 111.14 86.55 111.62 76.89
  Z"
/>
</svg>
